<?xml version="1.0" encoding="utf-8"?>
<!-- Svg Vector Icons : http://www.onlinewebfonts.com/icon -->
<!DOCTYPE svg PUBLIC "-//W3C//DTD SVG 1.1//EN" "http://www.w3.org/Graphics/SVG/1.1/DTD/svg11.dtd">
<svg version="1.1" xmlns="http://www.w3.org/2000/svg" xmlns:xlink="http://www.w3.org/1999/xlink" x="0px" y="0px" viewBox="0 0 1000 1000" enable-background="new 0 0 1000 1000" xml:space="preserve">
<metadata> Svg Vector Icons : http://www.onlinewebfonts.com/icon </metadata>
<g><g><g><path d="M826.7,10H173.3C83.3,10,10,83.3,10,173.3v653.3C10,916.7,83.3,990,173.3,990h653.3c90,0,163.3-73.3,163.3-163.3V173.3C990,83.3,916.7,10,826.7,10z M908.3,826.7c0,45.1-36.6,81.7-81.7,81.7H173.3c-45.1,0-81.7-36.6-81.7-81.7V173.3c0-45,36.6-81.7,81.7-81.7h653.3c45.1,0,81.7,36.6,81.7,81.7V826.7z"/><path d="M769.6,295.8H434.5c-22.6,0-40.8,18.3-40.8,40.8c0,22.5,18.2,40.8,40.8,40.8h335.1c22.6,0,40.8-18.3,40.8-40.8C810.5,314.1,792.2,295.8,769.6,295.8z"/><path d="M341.1,206.9l-56.3,67.3c-10.2-5.6-21.7-9.1-34.1-9.1c-15.5,0-29.7,5.1-41.5,13.5l-5.6-5.4c-8.1-7.8-21.1-7.6-28.9,0.5c-7.9,8.1-7.6,21,0.5,28.9l8.9,8.6c-3.1,7.9-4.9,16.4-4.9,25.5c0,39.4,32.1,71.5,71.5,71.5c39.4,0,71.5-32.1,71.5-71.5c0-12-3.3-23.2-8.6-33.2l58.8-70.4c7.2-8.7,6-21.5-2.6-28.8C361.3,197.1,348.4,198.3,341.1,206.9z M250.8,285.6c7.4,0,14.4,1.8,20.7,4.6l-22.4,26.8l-24.2-23.3C232.6,289,241.1,285.6,250.8,285.6z M301.8,336.7c0,28.1-22.9,51-51,51c-28.1,0-51-22.9-51-51c0-3.1,1.2-5.8,1.8-8.8l35,33.8c3.8,3.7,9,5.7,14.2,5.7c0.4,0,0.7,0,1.1,0c5.7-0.3,11-2.9,14.6-7.3l32.3-38.7C300.3,326.3,301.8,331.2,301.8,336.7z"/><path d="M250.8,428.5c-39.4,0-71.5,32.1-71.5,71.5s32.1,71.5,71.5,71.5c39.4,0,71.5-32.1,71.5-71.5S290.2,428.5,250.8,428.5z M250.8,551c-28.1,0-51-22.9-51-51s22.9-51,51-51c28.1,0,51,22.9,51,51S278.9,551,250.8,551z"/><path d="M769.6,459.2H434.5c-22.6,0-40.8,18.3-40.8,40.8s18.2,40.8,40.8,40.8h335.1c22.6,0,40.8-18.3,40.8-40.8S792.2,459.2,769.6,459.2z"/><path d="M250.8,591.9c-39.4,0-71.5,32.1-71.5,71.5s32.1,71.5,71.5,71.5c39.4,0,71.5-32.1,71.5-71.5S290.2,591.9,250.8,591.9z M250.8,714.4c-28.1,0-51-22.9-51-51s22.9-51,51-51c28.1,0,51,22.9,51,51S278.9,714.4,250.8,714.4z"/><path d="M769.6,622.5H434.5c-22.6,0-40.8,18.3-40.8,40.8c0,22.5,18.2,40.8,40.8,40.8h335.1c22.6,0,40.8-18.3,40.8-40.8C810.5,640.8,792.2,622.5,769.6,622.5z"/></g></g><g></g><g></g><g></g><g></g><g></g><g></g><g></g><g></g><g></g><g></g><g></g><g></g><g></g><g></g><g></g></g>
</svg>